<svg width="15" height="22.5" viewBox="0 0 60 90" fill="none" xmlns="http://www.w3.org/2000/svg">
  <rect x="16" y="8" width="28" height="18" rx="6" stroke="#e7e5e4" stroke-width="1.25" fill="none"/>
  <!-- Antenna -->
  <line x1="30" y1="4" x2="30" y2="8" stroke="#e7e5e4" stroke-width="1.25"/>
  <circle cx="30" cy="2" r="2" fill="#e7e5e4"/>
  <!-- Ears -->
  <rect x="12" y="14" width="6" height="8" rx="3" stroke="#e7e5e4" stroke-width="1.25" fill="none"/>
  <rect x="42" y="14" width="6" height="8" rx="3" stroke="#e7e5e4" stroke-width="1.25" fill="none"/>
  <!-- Eyes -->
  <circle cx="24" cy="17" r="3" fill="#e7e5e4"/>
  <circle cx="36" cy="17" r="3" fill="#e7e5e4"/>
  <!-- Smile -->
  <path d="M26 22 Q30 26 34 22" stroke="#e7e5e4" stroke-width="1" fill="none"/>
  <!-- Body -->
  <rect x="20" y="28" width="20" height="18" rx="5" stroke="#e7e5e4" stroke-width="1.25" fill="none"/>
  <!-- Heart -->
  <path d="M30 38 Q28 36 28 38 Q28 40 30 42 Q32 40 32 38 Q32 36 30 38 Z" fill="#e7e5e4"/>
  <!-- Left arm -->
  <path d="M20 32 Q10 38 20 44" stroke="#e7e5e4" stroke-width="1.25" fill="none"/>
  <circle cx="12" cy="38" r="2" stroke="#e7e5e4" stroke-width="1" fill="none"/>
  <!-- Right arm -->
  <path d="M40 32 Q50 38 40 44" stroke="#e7e5e4" stroke-width="1.25" fill="none"/>
  <circle cx="48" cy="38" r="2" stroke="#e7e5e4" stroke-width="1" fill="none"/>
  <!-- Left leg (spring) -->
  <path d="M26 46 Q24 52 26 58 Q28 64 26 70" stroke="#e7e5e4" stroke-width="1.25" fill="none"/>
  <rect x="22" y="70" width="8" height="6" rx="2" stroke="#e7e5e4" stroke-width="1.25" fill="none"/>
  <!-- Right leg (spring) -->
  <path d="M34 46 Q36 52 34 58 Q32 64 34 70" stroke="#e7e5e4" stroke-width="1.25" fill="none"/>
  <rect x="30" y="70" width="8" height="6" rx="2" stroke="#e7e5e4" stroke-width="1.25" fill="none"/>
</svg> 